#N canvas 227 69 1058 631 12;
#X obj 420 515 dac~;
#X obj 214 152 bng 19 250 50 0 empty empty empty 0 -10 0 12 #fcfcfc #000000 #000000;
#X msg 137 154 reset;
#X obj 214 288 *~ 0.2;
#X obj 324 289 *~ 0.2;
#X msg 339 113 remove;
#X msg 402 138 remove all;
#X msg 401 112 remove last;
#X msg 403 166 remove 2;
#X text 397 191 remove by index;
#X text 12 13 chuck~: a puredata external with an embedded chuck engine;
#X msg 256 114 freq_m \$1;
#X msg 176 111 wet \$1;
#X floatatom 256 77 5 0 20 0 - - - 0;
#X floatatom 176 78 5 0 0.5 0 - - - 0;
#X obj 179 41 hsl 30 19 0 0.5 0 0 empty empty empty -2 -10 0 12 #fcfcfc #000000 #000000 0 1;
#X obj 259 41 hsl 30 19 0 20 0 0 empty empty empty -2 -10 0 12 #fcfcfc #000000 #000000 0 1;
#X obj 215 234 chuck~ pdtest.ck;
#X text 210 132 run;
#X msg 10 177 run phasor.ck;
#X msg 26 111 run Sine-test.ck;
#X msg 256 152 info;
#X obj 739 163 bng 19 250 50 0 empty empty empty 0 -10 0 12 #fcfcfc #000000 #000000;
#X msg 662 165 reset;
#X obj 739 299 *~ 0.2;
#X obj 849 300 *~ 0.2;
#X msg 864 124 remove;
#X msg 927 149 remove all;
#X msg 926 123 remove last;
#X msg 928 177 remove 2;
#X text 922 202 remove by index;
#X msg 781 125 freq_m \$1;
#X msg 701 122 wet \$1;
#X floatatom 781 88 5 0 20 0 - - - 0;
#X floatatom 701 89 5 0 0.5 0 - - - 0;
#X obj 704 52 hsl 30 19 0 0.5 0 0 empty empty empty -2 -10 0 12 #fcfcfc #000000 #000000 0 1;
#X obj 784 52 hsl 30 19 0 20 0 0 empty empty empty -2 -10 0 12 #fcfcfc #000000 #000000 0 1;
#X obj 740 245 chuck~ pdtest.ck;
#X text 735 143 run;
#X msg 535 188 run phasor.ck;
#X msg 551 122 run Sine-test.ck;
#X msg 781 163 info;
#X connect 1 0 17 0;
#X connect 2 0 17 0;
#X connect 3 0 0 0;
#X connect 4 0 0 1;
#X connect 5 0 17 0;
#X connect 6 0 17 0;
#X connect 7 0 17 0;
#X connect 8 0 17 0;
#X connect 11 0 17 0;
#X connect 12 0 17 0;
#X connect 13 0 11 0;
#X connect 14 0 12 0;
#X connect 15 0 14 0;
#X connect 16 0 13 0;
#X connect 17 0 3 0;
#X connect 17 1 4 0;
#X connect 19 0 17 0;
#X connect 20 0 17 0;
#X connect 21 0 17 0;
#X connect 22 0 37 0;
#X connect 23 0 37 0;
#X connect 24 0 0 0;
#X connect 25 0 0 1;
#X connect 26 0 37 0;
#X connect 27 0 37 0;
#X connect 28 0 37 0;
#X connect 29 0 37 0;
#X connect 31 0 37 0;
#X connect 32 0 37 0;
#X connect 33 0 31 0;
#X connect 34 0 32 0;
#X connect 35 0 34 0;
#X connect 36 0 33 0;
#X connect 37 0 24 0;
#X connect 37 1 25 0;
#X connect 39 0 37 0;
#X connect 40 0 37 0;
#X connect 41 0 37 0;
