#N canvas 584 64 677 590 12;
#X obj 231 166 bng 19 250 50 0 empty empty empty 0 -10 0 12 #fcfcfc #000000 #000000;
#X msg 87 92 reset;
#X msg 416 103 remove;
#X msg 418 159 remove all;
#X msg 417 133 remove last;
#X msg 419 187 remove 2;
#X text 500 186 remove by index;
#X text 12 13 chuck~: a puredata external with an embedded chuck engine;
#X msg 273 128 freq_m \$1;
#X msg 193 125 wet \$1;
#X floatatom 273 91 5 0 20 0 - - - 0;
#X floatatom 193 92 5 0 0.5 0 - - - 0;
#X obj 196 64 hsl 50 19 0 0.5 0 0 empty empty empty -2 -10 0 12 #fcfcfc #000000 #000000 0 1;
#X obj 276 64 hsl 50 19 0 20 0 0 empty empty empty -2 -10 0 12 #fcfcfc #000000 #000000 0 1;
#X text 227 146 run;
#X obj 259 320 chuck~ pd/test.ck;
#X msg 37 247 run warpbuf/test.ck;
#X msg 23 318 loglevel 5;
#X msg 148 165 status;
#X msg 38 187 + test/sine.ck;
#X msg 413 66 replace 1 stk/honkeytonk-algo1.ck;
#X msg 117 123 reset id;
#X msg 419 286 clear globals;
#X msg 419 258 clear vm;
#X msg 413 42 = 1 stk/honkeytonk-algo3.ck;
#X msg 419 212 - 1;
#X msg 165 192 chugins;
#X obj 261 405 output~;
#X msg 272 164 globals;
#X msg 275 194 docs;
#X msg 185 220 vm;
#X msg 473 212 - 1 2;
#X msg 39 215 add fauck/fau.ck;
#X msg 16 286 + fluidsynth/fluidsynth-test.ck;
#X msg 28 349 shreds;
#X connect 0 0 15 0;
#X connect 1 0 15 0;
#X connect 2 0 15 0;
#X connect 3 0 15 0;
#X connect 4 0 15 0;
#X connect 5 0 15 0;
#X connect 8 0 15 0;
#X connect 9 0 15 0;
#X connect 10 0 8 0;
#X connect 11 0 9 0;
#X connect 12 0 11 0;
#X connect 13 0 10 0;
#X connect 15 0 27 0;
#X connect 15 1 27 1;
#X connect 16 0 15 0;
#X connect 17 0 15 0;
#X connect 18 0 15 0;
#X connect 19 0 15 0;
#X connect 20 0 15 0;
#X connect 21 0 15 0;
#X connect 22 0 15 0;
#X connect 23 0 15 0;
#X connect 24 0 15 0;
#X connect 25 0 15 0;
#X connect 26 0 15 0;
#X connect 28 0 15 0;
#X connect 29 0 15 0;
#X connect 30 0 15 0;
#X connect 31 0 15 0;
#X connect 32 0 15 0;
#X connect 33 0 15 0;
#X connect 34 0 15 0;
