#N canvas 493 291 450 300 12;
#X obj 144 82 puck~;
#X obj 97 23 osc~ 440;
#X obj 209 22 osc~ 110;
#X obj 143 147 *~ 0.2;
#X obj 138 216 dac~;
#X obj 250 55 vsl 15 128 0 1 0 0 empty empty empty 0 -9 0 10 #fcfcfc
#000000 #000000 0 1;
#X connect 0 0 3 0;
#X connect 1 0 0 0;
#X connect 2 0 0 1;
#X connect 3 0 4 0;
#X connect 3 0 4 1;
#X connect 5 0 0 2;
