#N canvas 382 300 450 300 12;
#X obj 144 82 puck~;
#X obj 144 130 snapshot~;
#X floatatom 144 180 5 0 0 0 - - - 0;
#X msg 256 74 \; pd dsp 1;
#X obj 256 34 loadbang;
#X connect 0 0 1 0;
#X connect 1 0 2 0;
#X connect 4 0 3 0;
