#N canvas 584 55 676 550 12;
#X declare -path ..;
#X obj 231 166 bng 19 250 50 0 empty empty empty 0 -10 0 12 #fcfcfc #000000 #000000;
#X msg 87 92 reset;
#X msg 416 103 remove;
#X msg 418 159 remove all;
#X msg 417 133 remove last;
#X msg 419 187 remove 2;
#X text 500 186 remove by index;
#X text 12 13 chuck~: a puredata external with an embedded chuck engine;
#X msg 273 128 freq_m \$1;
#X msg 193 125 wet \$1;
#X floatatom 273 91 5 0 20 0 - - - 0;
#X floatatom 193 92 5 0 0.5 0 - - - 0;
#X obj 196 55 hsl 30 19 0 0.5 0 0 empty empty empty -2 -10 0 12 #fcfcfc #000000 #000000 0 1;
#X obj 276 55 hsl 30 19 0 20 0 0 empty empty empty -2 -10 0 12 #fcfcfc #000000 #000000 0 1;
#X text 227 146 run;
#X msg 273 166 info;
#X obj 230 313 chuck~ pd/test.ck;
#X msg 37 247 run warpbuf/test.ck;
#X msg 39 286 loglevel 5;
#X msg 148 165 status;
#X msg 39 215 add fauck/test.ck;
#X msg 38 187 + test/sine.ck;
#X msg 413 66 replace 1 stk/honkeytonk-algo1.ck;
#X msg 117 123 reset id;
#X msg 419 286 clear globals;
#X msg 419 258 clear vm;
#X msg 413 42 = 1 stk/honkeytonk-algo3.ck;
#X msg 419 212 - 1;
#X msg 165 192 chugins;
#X obj 548 8 declare -path ..;
#X obj 232 389 output~;
#X connect 0 0 16 0;
#X connect 1 0 16 0;
#X connect 2 0 16 0;
#X connect 3 0 16 0;
#X connect 4 0 16 0;
#X connect 5 0 16 0;
#X connect 8 0 16 0;
#X connect 9 0 16 0;
#X connect 10 0 8 0;
#X connect 11 0 9 0;
#X connect 12 0 11 0;
#X connect 13 0 10 0;
#X connect 15 0 16 0;
#X connect 16 0 30 0;
#X connect 16 1 30 1;
#X connect 17 0 16 0;
#X connect 18 0 16 0;
#X connect 19 0 16 0;
#X connect 20 0 16 0;
#X connect 21 0 16 0;
#X connect 22 0 16 0;
#X connect 23 0 16 0;
#X connect 24 0 16 0;
#X connect 25 0 16 0;
#X connect 26 0 16 0;
#X connect 27 0 16 0;
#X connect 28 0 16 0;
