#N canvas 1218 133 1436 1134 12;
#X declare -path ..;
#X obj 231 166 bng 19 250 50 0 empty empty empty 0 -10 0 12 #fcfcfc #000000 #000000;
#X msg 163 166 reset;
#X text 227 146 run;
#X msg 282 168 status;
#X msg 356 168 chugins;
#X text 12 13 chuck~: test faust;
#X obj 230 367 *~ 0.4;
#X obj 367 366 *~ 0.4;
#X obj 280 428 dac~;
#X msg 39 286 loglevel 10;
#X obj 39 230 loadbang;
#X obj 548 8 declare -path ..;
#X obj 229 92 loadbang;
#X obj 230 313 chuck~ fauck/fau.ck;
#X connect 0 0 13 0;
#X connect 1 0 13 0;
#X connect 3 0 13 0;
#X connect 4 0 13 0;
#X connect 6 0 8 0;
#X connect 7 0 8 1;
#X connect 9 0 13 0;
#X connect 10 0 9 0;
#X connect 12 0 0 0;
#X connect 13 0 6 0;
#X connect 13 1 7 0;
