#N canvas 584 55 676 550 12;
#X declare -path ..;
#X obj 280 431 dac~;
#X text 12 13 chuck~: a puredata external with an embedded chuck engine;
#X obj 230 313 chuck~ pd/test.ck;
#X msg 298 256 reset;
#X msg 363 256 status;
#X obj 229 367 *~ 0.5;
#X obj 339 368 *~ 0.5;
#X msg 134 108 eval SinOsc s => dac\\\; 0.5 => s.gain\\\; 1::hour => now\\\;;
#X msg 179 143 eval SinOsc s => dac\\\; 0.5 => s.gain\\\; 1::hour => now\\\;;
#X text 43 50 To evaluate chuck code in a pd message commas and semicolons must be escaped with a backslash as below.;
#X obj 547 12 declare -path ..;
#X connect 2 0 5 0;
#X connect 2 1 6 0;
#X connect 3 0 2 0;
#X connect 4 0 2 0;
#X connect 5 0 0 0;
#X connect 6 0 0 1;
#X connect 7 0 2 0;
#X connect 8 0 2 0;
