#N canvas 421 368 552 470 12;
#X symbolatom 77 125 60 0 0 0 - - - 0;
#X msg 77 75 set >;
#X obj 115 149 cnv 19 300 30 empty \$0-canvas define\ 1+1\ =\ 1000\; 20 12 0 12 #e0e0e0 #404040 0;
#X obj 77 248 t b a;
#X obj 109 348 makefilename %s;
#X obj 109 400 s \$0-canvas;
#X msg 109 372 label \$1;
#X obj 308 332 text set myscript;
#X obj 308 365 text define -k myscript;
#A set define\\\ 1+1\\\ =\\\ 1000\\\; \;;
#X msg 346 260 1e+15;
#X msg 262 222 list x y z w;
#X msg 280 248 1 2 3;
#X msg 243 195 12 23 34 45 56 56;
#X obj 77 33 loadbang;
#X connect 0 0 3 0;
#X connect 1 0 0 0;
#X connect 3 1 7 0;
#X connect 3 1 4 0;
#X connect 4 0 6 0;
#X connect 6 0 5 0;
#X connect 9 0 7 1;
#X connect 10 0 7 0;
#X connect 11 0 7 0;
#X connect 12 0 7 0;
#X connect 13 0 1 0;
#X coords 0 0 1 1 170 60 0;
